<svg width="46" height="30" viewBox="0 0 46 30" fill="none" xmlns="http://www.w3.org/2000/svg">
<path d="M4.76609 24.1065C1.65655 24.4035 0.414539 23.2965 0.50454 20.34C0.639542 15.8399 1.21555 11.4119 3.09207 7.25384C4.96859 3.0958 8.04212 0.61627 12.8617 0.778272C14.5717 0.836773 16.2907 0.656771 18.0052 0.54427C24.5843 0.116765 29.6649 2.79429 33.2829 8.19435C34.5294 10.0439 35.9334 11.3129 38.1385 11.6684C38.5879 11.7777 39.0263 11.9283 39.448 12.1184C43.8535 13.7159 45.811 16.7309 45.46 21.393C45.3115 23.4135 43.8085 24.444 41.5315 24.093C40.384 20.628 38.2195 18.828 35.2899 18.9225C32.3604 19.017 30.2769 20.862 29.3634 24.1965H25.4258C22.8743 24.1965 20.3183 24.1965 17.7757 24.1695C17.5742 24.1555 17.3786 24.0954 17.2038 23.994C17.0291 23.8926 16.8799 23.7525 16.7677 23.5845C15.4852 20.4345 13.4422 18.8235 10.6612 18.9225C7.78562 19.0215 5.7201 20.8305 4.76609 24.1065ZM17.7757 11.3669H29.3814C29.6559 11.3669 29.9304 11.3399 30.2454 11.3219C28.0358 6.73184 22.4558 3.88781 17.7757 4.94082V11.3669ZM6.1881 11.2634H14.8597V5.07132C9.95014 4.42781 6.71911 6.73184 6.1881 11.2634V11.2634Z" fill="#FFDA96"/>
<path d="M10.8096 29.0565C10.2747 29.0565 9.74512 28.9506 9.25139 28.7448C8.75765 28.539 8.30957 28.2375 7.93302 27.8576C7.55646 27.4777 7.25889 27.027 7.05749 26.5314C6.85608 26.0359 6.75484 25.5054 6.75959 24.9705C6.76051 24.1621 7.00146 23.3722 7.45189 22.7009C7.90233 22.0296 8.54196 21.5072 9.28968 21.1999C10.0374 20.8926 10.8595 20.8143 11.6518 20.9749C12.4441 21.1354 13.1709 21.5277 13.74 22.1018C14.3091 22.676 14.6948 23.4062 14.8484 24.1998C15.0019 24.9935 14.9163 25.8149 14.6024 26.5599C14.2885 27.3049 13.7605 27.9399 13.0853 28.3843C12.41 28.8288 11.618 29.0628 10.8096 29.0565V29.0565Z" fill="#FFDA96"/>
<path d="M35.4519 29.0566C34.6534 29.0503 33.8746 28.8082 33.2133 28.3606C32.552 27.913 32.0378 27.2799 31.7353 26.5409C31.4328 25.8019 31.3555 24.9899 31.5132 24.2071C31.6708 23.4243 32.0563 22.7056 32.6213 22.1413C33.1862 21.5769 33.9054 21.1922 34.6884 21.0354C35.4714 20.8787 36.2832 20.9568 37.0219 21.2602C37.7606 21.5635 38.3931 22.0784 38.84 22.7401C39.2868 23.4019 39.5281 24.181 39.5335 24.9795C39.5311 26.0609 39.1002 27.0972 38.3351 27.8614C37.5701 28.6256 36.5333 29.0554 35.4519 29.0566Z" fill="#FFDA96"/>
</svg>
