<svg width="68" height="49" viewBox="0 0 68 49" fill="none" xmlns="http://www.w3.org/2000/svg">
<path d="M49.6038 16.8025L44.5064 14.906C40.3795 13.3708 37.1263 10.0892 35.6047 5.92617L33.7246 0.783516C33.6539 0.590192 33.4712 0.461792 33.2669 0.461792C33.0626 0.461792 32.8799 0.590192 32.8092 0.783516L30.9291 5.92589C29.4072 10.0892 26.154 13.3708 22.0274 14.906L16.9297 16.8025C16.7381 16.8738 16.6108 17.0581 16.6108 17.2642C16.6108 17.4703 16.7381 17.6546 16.9297 17.7259L22.0277 19.6229C26.1543 21.1582 29.4072 24.4398 30.9291 28.6028L32.8092 33.7458C32.8799 33.9391 33.0626 34.0675 33.2669 34.0675C33.4712 34.0675 33.6539 33.9391 33.7246 33.7458L35.6047 28.6028C37.1266 24.4398 40.3795 21.1579 44.5061 19.6229L49.6041 17.7259C49.7957 17.6546 49.923 17.4703 49.923 17.2642C49.923 17.0581 49.7954 16.8738 49.6038 16.8025Z" fill="#FFEFD6"/>
<path d="M67.5947 40.8153L65.1779 39.916C63.2216 39.1882 61.6796 37.6326 60.9582 35.6594L60.0667 33.2218C60.0334 33.1302 59.9466 33.0693 59.8498 33.0693C59.7529 33.0693 59.6662 33.1302 59.6329 33.2218L58.7413 35.6594C58.0199 37.6329 56.4779 39.1885 54.5219 39.916L52.1051 40.8153C52.0143 40.849 51.954 40.9365 51.954 41.0342C51.954 41.1319 52.0143 41.2194 52.1051 41.253L54.5216 42.1524C56.4782 42.8802 58.0202 44.436 58.7416 46.4096L59.6331 48.8474C59.6665 48.939 59.7532 48.9999 59.8501 48.9999C59.9469 48.9999 60.0336 48.939 60.067 48.8474L60.9585 46.4096C61.6799 44.436 63.2219 42.8802 65.1785 42.1524L67.595 41.253C67.6858 41.2194 67.7461 41.1319 67.7461 41.0342C67.7461 40.9365 67.6858 40.849 67.5947 40.8153Z" fill="#FFEFD6"/>
<path d="M20.1292 35.8035L17.0894 34.6732C14.6289 33.7578 12.689 31.8008 11.7811 29.3183L10.6603 26.2518C10.6181 26.1367 10.5092 26.0599 10.3874 26.0599C10.2656 26.0599 10.1567 26.1367 10.1145 26.2518L8.99367 29.318C8.08635 31.8005 6.14645 33.7575 3.68537 34.6732L0.646222 35.8035C0.531586 35.8459 0.456024 35.956 0.456024 36.0789C0.456024 36.2018 0.531874 36.3119 0.646222 36.3542L3.68565 37.4852C6.14616 38.4005 8.08606 40.3575 8.99367 42.84L10.1145 45.9065C10.1567 46.0219 10.2656 46.0984 10.3874 46.0984C10.5092 46.0984 10.6184 46.0219 10.6603 45.9065L11.7814 42.8397C12.6887 40.3575 14.6284 38.4008 17.0891 37.4852L20.1292 36.3542C20.2435 36.3119 20.3194 36.2018 20.3194 36.0789C20.3194 35.956 20.2438 35.8459 20.1292 35.8035Z" fill="#FFEFD6"/>
</svg>
