<svg width="128" height="19" viewBox="0 0 128 19" fill="none" xmlns="http://www.w3.org/2000/svg">
<path d="M128 0.5L122.243 0.0619287L124.742 5.26655L128 0.5ZM0.285549 0.951676C1.03941 1.3096 1.78822 1.66202 2.5321 2.00894L2.95476 1.10265C2.21302 0.756728 1.46629 0.40529 0.714451 0.0483245L0.285549 0.951676ZM5.19181 3.23541C6.70962 3.92719 8.20696 4.59544 9.68503 5.2403L10.0849 4.32373C8.61205 3.68115 7.11966 3.01511 5.60654 2.32547L5.19181 3.23541ZM12.4146 6.41375C13.9512 7.06433 15.4671 7.6889 16.9637 8.28761L17.3351 7.35914C15.845 6.76302 14.3352 6.141 12.8045 5.49289L12.4146 6.41375ZM19.7061 9.36392C21.2653 9.96388 22.804 10.535 24.3237 11.0774L24.6598 10.1356C23.1482 9.59605 21.6172 9.02779 20.0652 8.43062L19.7061 9.36392ZM27.1054 12.0454C28.6871 12.5814 30.2488 13.0854 31.7924 13.5579L32.085 12.6016C30.5513 12.1322 28.999 11.6312 27.4263 11.0983L27.1054 12.0454ZM34.635 14.3977C36.238 14.8541 37.8224 15.2756 39.3903 15.6622L39.6297 14.6913C38.0738 14.3076 36.5009 13.8892 34.9088 13.436L34.635 14.3977ZM42.2783 16.3392C43.9033 16.7 45.5118 17.0227 47.1063 17.3076L47.2822 16.3232C45.7018 16.0408 44.107 15.7209 42.4951 15.363L42.2783 16.3392ZM50.0319 17.7902C51.6737 18.0382 53.302 18.2455 54.9199 18.4124L55.0225 17.4177C53.4206 17.2525 51.8078 17.0472 50.1813 16.8014L50.0319 17.7902ZM57.8736 18.673C59.5245 18.7939 61.1663 18.8723 62.8021 18.9085L62.8242 17.9088C61.2056 17.8729 59.5808 17.7954 57.9466 17.6757L57.8736 18.673ZM65.7637 18.9281C67.4111 18.9134 69.0542 18.8558 70.6964 18.7558L70.6356 17.7577C69.0106 17.8566 67.3848 17.9136 65.7547 17.9282L65.7637 18.9281ZM73.6499 18.5303C75.2809 18.3805 76.9129 18.1892 78.549 17.9567L78.4083 16.9666C76.7882 17.1969 75.1727 17.3863 73.5585 17.5344L73.6499 18.5303ZM81.4743 17.498C83.0807 17.2227 84.6929 16.9082 86.3138 16.555L86.1009 15.5779C84.4941 15.9281 82.8966 16.2397 81.3054 16.5123L81.4743 17.498ZM89.1967 15.8884C90.7737 15.5029 92.3607 15.0815 93.9602 14.6245L93.6855 13.663C92.0978 14.1166 90.5233 14.5347 88.9593 14.9169L89.1967 15.8884ZM96.7945 13.7818C98.3411 13.3042 99.9007 12.7942 101.476 12.252L101.15 11.3065C99.5849 11.8454 98.0354 12.352 96.4995 12.8263L96.7945 13.7818ZM104.263 11.2651C105.781 10.713 107.314 10.132 108.865 9.52225L108.499 8.59163C106.956 9.1984 105.431 9.77636 103.922 10.3253L104.263 11.2651ZM111.614 8.41862C113.107 7.80756 114.616 7.17072 116.144 6.50833L115.746 5.59082C114.224 6.25067 112.721 6.88485 111.235 7.49317L111.614 8.41862ZM118.848 5.31835C120.322 4.66021 121.814 3.97908 123.325 3.27514L122.903 2.36868C121.396 3.0705 119.909 3.74941 118.44 4.40524L118.848 5.31835Z" fill="#272F32"/>
</svg>
