<svg width="67" height="61" viewBox="0 0 67 61" fill="none" xmlns="http://www.w3.org/2000/svg">
<path d="M1 59.0659L26 35.0659" stroke="#FFDA96" stroke-width="2" stroke-linecap="round" stroke-linejoin="round"/>
<path d="M53.5531 46.8277L52.6013 45.0217C51.8307 43.5596 51.7417 41.8271 52.3578 40.281L53.1187 38.371C53.1473 38.2992 53.1283 38.2175 53.0711 38.1664C53.014 38.1153 52.9307 38.1055 52.8625 38.142L51.0495 39.1113C49.5817 39.8962 47.8501 40.0011 46.3111 39.3987L44.4101 38.6544C44.3386 38.6264 44.2568 38.6462 44.2053 38.7039C44.1537 38.7616 44.1432 38.845 44.179 38.9129L45.1308 40.7193C45.9012 42.1813 45.9902 43.9138 45.3742 45.4599L44.6132 47.37C44.5846 47.4418 44.6036 47.5235 44.6608 47.5746C44.718 47.6257 44.8012 47.6354 44.8694 47.599L46.6826 46.6295C48.1503 45.8447 49.8819 45.7396 51.4208 46.3422L53.3221 47.0863C53.3935 47.1143 53.4753 47.0945 53.5269 47.0368C53.5784 46.9791 53.5889 46.8956 53.5531 46.8277Z" fill="#FFDA96"/>
<path d="M34.8246 11.311L34.0644 9.86828C33.449 8.70055 33.378 7.31698 33.8699 6.08223L34.4773 4.55679C34.5003 4.49954 34.485 4.43427 34.4394 4.39346C34.3937 4.35266 34.3271 4.3448 34.2728 4.37395L32.8247 5.14795C31.6525 5.77476 30.2697 5.85862 29.0408 5.37742L27.5222 4.78308C27.4652 4.76067 27.3998 4.77653 27.3587 4.8226C27.3175 4.86867 27.309 4.93539 27.3376 4.98951L28.0977 6.43214C28.7132 7.6 28.7842 8.9837 28.2922 10.2186L27.6846 11.7442C27.6616 11.8014 27.6769 11.8667 27.7225 11.9075C27.7682 11.9483 27.8347 11.9562 27.8891 11.927L29.3373 11.1529C30.5095 10.5261 31.8925 10.4421 33.1218 10.9234L34.6402 11.5176C34.6972 11.54 34.7626 11.5241 34.8037 11.4781C34.8449 11.432 34.8534 11.3653 34.8246 11.311Z" fill="#FFDA96"/>
<path d="M23.839 25.0264L22.8826 23.2122C22.1085 21.7435 22.0191 20.0029 22.6378 18.4494L23.4024 16.5307C23.431 16.4586 23.4121 16.3765 23.3546 16.3251C23.2972 16.2738 23.2135 16.2641 23.145 16.3006L21.3238 17.2745C19.8493 18.063 18.1096 18.1685 16.5633 17.5632L14.6539 16.8155C14.582 16.7872 14.5 16.8073 14.4481 16.8653C14.3963 16.9232 14.3857 17.0071 14.4217 17.0753L15.3778 18.8897C16.1518 20.3583 16.2412 22.0989 15.6224 23.6524L14.8578 25.5711C14.8291 25.6433 14.8482 25.7253 14.9056 25.7766C14.963 25.8279 15.0467 25.8379 15.1152 25.8011L16.9368 24.8271C18.4111 24.0387 20.1506 23.9332 21.6968 24.5384L23.6068 25.2862C23.6786 25.3144 23.7608 25.2944 23.8126 25.2365C23.8644 25.1785 23.8752 25.0947 23.839 25.0264Z" fill="#FFDA96"/>
<path d="M43.4508 4.99988C40.9965 4.99988 39 6.99636 39 9.45064C39 11.9043 40.9965 13.9014 43.4508 13.9014C45.9044 13.9014 47.9015 11.9049 47.9015 9.45064C47.9015 6.99636 45.9044 4.99988 43.4508 4.99988ZM45.3576 9.45C45.3576 8.39835 44.5018 7.54253 43.4501 7.54253V6.27089C45.2031 6.27089 46.6292 7.69704 46.6292 9.45H45.3576Z" fill="#FFDA96"/>
<path d="M37.1781 27.6589C36.7789 27.2731 36.6592 26.6877 36.8721 26.1821L39.6793 19.5033L33.3996 22.9492C32.9074 23.2152 32.2954 23.1487 31.8696 22.7762L26.5346 17.9999L27.7852 25.1178C27.8783 25.6632 27.6256 26.2087 27.1599 26.4881L21 30.1734L28.1577 31.1579C28.7165 31.2378 29.1556 31.6502 29.2753 32.1957L30.8053 39.2337L33.9052 32.7544C34.1447 32.2489 34.6769 31.9562 35.2223 32.0094L42.3534 32.6613L37.1781 27.6589Z" fill="#FFDA96"/>
<path d="M16.5 34.0659C17.8782 34.0659 19 32.9444 19 31.5659C19 30.1873 17.8786 29.0659 16.5 29.0659C15.1214 29.0659 14 30.1873 14 31.5659C14 32.9444 15.1214 34.0659 16.5 34.0659ZM16.5 29.7805C17.4846 29.7805 18.2857 30.5816 18.2857 31.5662H17.5714C17.5714 30.9755 17.0907 30.4948 16.5 30.4948V29.7805Z" fill="#FFDA96"/>
<path d="M50.5 31.0659C51.8782 31.0659 53 29.9444 53 28.5659C53 27.1873 51.8786 26.0659 50.5 26.0659C49.1214 26.0659 48 27.1873 48 28.5659C48 29.9444 49.1214 31.0659 50.5 31.0659ZM50.5 26.7805C51.4846 26.7805 52.2857 27.5816 52.2857 28.5662H51.5714C51.5714 27.9755 51.0907 27.4948 50.5 27.4948V26.7805Z" fill="#FFDA96"/>
<path d="M26.9075 41.9999C25.8558 41.9999 25 42.8558 25 43.9074C25 44.9591 25.8558 45.8149 26.9075 45.8149C27.9591 45.8149 28.8149 44.9591 28.8149 43.9074C28.8143 42.8551 27.9585 41.9999 26.9075 41.9999Z" fill="#FFDA96"/>
<path d="M47 23.3375C47 24.0388 47.5703 24.6091 48.2716 24.6091C48.973 24.6091 49.5433 24.0388 49.5433 23.3375C49.5433 22.6362 48.973 22.0659 48.2716 22.0659C47.5697 22.0659 47 22.6356 47 23.3375Z" fill="#FFDA96"/>
<path d="M35.2716 42.0659C34.5703 42.0659 34 42.6362 34 43.3375C34 44.0388 34.5703 44.6091 35.2716 44.6091C35.973 44.6091 36.5433 44.0388 36.5433 43.3375C36.5433 42.6356 35.973 42.0659 35.2716 42.0659Z" fill="#FFDA96"/>
<path d="M27.6358 16.2716C27.9862 16.2716 28.2716 15.9867 28.2716 15.6358C28.2716 15.2848 27.9868 14.9999 27.6358 14.9999C27.2848 14.9999 27 15.2848 27 15.6358C27 15.9867 27.2848 16.2716 27.6358 16.2716Z" fill="#FFDA96"/>
</svg>
