<svg width="42" height="42" viewBox="0 0 42 42" fill="none" xmlns="http://www.w3.org/2000/svg">
<path fill-rule="evenodd" clip-rule="evenodd" d="M10.4299 30.5827C10.2346 30.778 10.2346 31.0945 10.4299 31.2898C10.6251 31.4851 10.9417 31.4851 11.137 31.2898L20.8597 21.567L30.5826 31.2899C30.7779 31.4852 31.0944 31.4852 31.2897 31.2899C31.485 31.0947 31.485 30.7781 31.2897 30.5828L21.5668 20.8599L31.2897 11.1369C31.485 10.9417 31.485 10.6251 31.2897 10.4298C31.0944 10.2346 30.7778 10.2346 30.5826 10.4298L20.8597 20.1528L11.137 10.43C10.9417 10.2347 10.6251 10.2347 10.4299 10.43C10.2346 10.6252 10.2346 10.9418 10.4299 11.1371L20.1526 20.8599L10.4299 30.5827Z" fill="black" fill-opacity="0.8"/>
</svg>
