<svg width="18" height="20" viewBox="0 0 18 20" fill="none" xmlns="http://www.w3.org/2000/svg">
<g clip-path="url(#clip0)">
<path d="M8.75384 5.50781C6.26946 5.50781 4.26556 7.51172 4.26556 9.99609C4.26556 12.4805 6.26946 14.4844 8.75384 14.4844C11.2382 14.4844 13.2421 12.4805 13.2421 9.99609C13.2421 7.51172 11.2382 5.50781 8.75384 5.50781ZM8.75384 12.9141C7.14837 12.9141 5.83587 11.6055 5.83587 9.99609C5.83587 8.38672 7.14446 7.07812 8.75384 7.07812C10.3632 7.07812 11.6718 8.38672 11.6718 9.99609C11.6718 11.6055 10.3593 12.9141 8.75384 12.9141ZM14.4726 5.32422C14.4726 5.90625 14.0038 6.37109 13.4257 6.37109C12.8437 6.37109 12.3788 5.90234 12.3788 5.32422C12.3788 4.74609 12.8476 4.27734 13.4257 4.27734C14.0038 4.27734 14.4726 4.74609 14.4726 5.32422ZM17.4452 6.38672C17.3788 4.98437 17.0585 3.74219 16.0312 2.71875C15.0077 1.69531 13.7656 1.375 12.3632 1.30469C10.9179 1.22266 6.58587 1.22266 5.14056 1.30469C3.74212 1.37109 2.49993 1.69141 1.47259 2.71484C0.445244 3.73828 0.128838 4.98047 0.0585251 6.38281C-0.0235062 7.82812 -0.0235062 12.1602 0.0585251 13.6055C0.124931 15.0078 0.445244 16.25 1.47259 17.2734C2.49993 18.2969 3.73821 18.6172 5.14056 18.6875C6.58587 18.7695 10.9179 18.7695 12.3632 18.6875C13.7656 18.6211 15.0077 18.3008 16.0312 17.2734C17.0546 16.25 17.3749 15.0078 17.4452 13.6055C17.5273 12.1602 17.5273 7.83203 17.4452 6.38672ZM15.5781 15.1562C15.2734 15.9219 14.6835 16.5117 13.914 16.8203C12.7617 17.2773 10.0273 17.1719 8.75384 17.1719C7.4804 17.1719 4.74212 17.2734 3.59368 16.8203C2.82806 16.5156 2.23821 15.9258 1.92962 15.1562C1.47259 14.0039 1.57806 11.2695 1.57806 9.99609C1.57806 8.72266 1.47649 5.98437 1.92962 4.83594C2.23431 4.07031 2.82415 3.48047 3.59368 3.17187C4.74603 2.71484 7.4804 2.82031 8.75384 2.82031C10.0273 2.82031 12.7656 2.71875 13.914 3.17187C14.6796 3.47656 15.2695 4.06641 15.5781 4.83594C16.0351 5.98828 15.9296 8.72266 15.9296 9.99609C15.9296 11.2695 16.0351 14.0078 15.5781 15.1562Z" fill="#333333"/>
</g>
<defs>
<clipPath id="clip0">
<rect width="17.5" height="20" fill="white"/>
</clipPath>
</defs>
</svg>
