<svg width="39" height="50" viewBox="0 0 39 50" fill="none" xmlns="http://www.w3.org/2000/svg">
<path d="M19.4445 0C8.72272 0 0 8.72272 0 19.4445C0 24.6528 3.15546 31.3413 9.37868 39.3232C12.2298 42.9707 15.3175 46.4271 18.6216 49.6699C18.8432 49.8817 19.1379 50 19.4445 50C19.751 50 20.0457 49.8817 20.2673 49.6699C23.5715 46.4271 26.6591 42.9707 29.5102 39.3232C35.7335 31.3413 38.8889 24.6528 38.8889 19.4445C38.8889 8.72272 30.1662 0 19.4445 0ZM19.4445 33.3334C11.7857 33.3334 5.55556 27.1032 5.55556 19.4445C5.55556 11.7857 11.7857 5.55556 19.4445 5.55556C27.1032 5.55556 33.3334 11.7857 33.3334 19.4445C33.3334 27.1032 27.1032 33.3334 19.4445 33.3334Z" fill="#FFDA96"/>
<path d="M28.9754 17.7699L20.2452 9.83339C20.0261 9.63418 19.7406 9.5238 19.4444 9.5238C19.1483 9.5238 18.8628 9.63418 18.6437 9.83339L9.91349 17.7699C9.7101 17.9549 9.57695 18.2045 9.53663 18.4764C9.4963 18.7483 9.55129 19.0259 9.69226 19.2619C9.80348 19.4416 9.95935 19.5894 10.1447 19.6909C10.33 19.7924 10.5385 19.8442 10.7498 19.8412H11.9048V27.3809C11.9048 27.6967 12.0302 27.9995 12.2534 28.2227C12.4767 28.446 12.7795 28.5714 13.0952 28.5714H15.873C16.1888 28.5714 16.4916 28.446 16.7148 28.2227C16.9381 27.9995 17.0635 27.6967 17.0635 27.3809V23.0158C17.0635 22.7001 17.1889 22.3973 17.4122 22.174C17.6354 21.9508 17.9382 21.8254 18.254 21.8254H20.6349C20.9507 21.8254 21.2535 21.9508 21.4767 22.174C21.7 22.3973 21.8254 22.7001 21.8254 23.0158V27.3809C21.8254 27.6967 21.9508 27.9995 22.1741 28.2227C22.3973 28.446 22.7001 28.5714 23.0159 28.5714H25.7937C26.1094 28.5714 26.4122 28.446 26.6355 28.2227C26.8587 27.9995 26.9841 27.6967 26.9841 27.3809V19.8412H28.1391C28.3504 19.8442 28.5589 19.7924 28.7442 19.6909C28.9295 19.5894 29.0854 19.4416 29.1966 19.2619C29.3376 19.0259 29.3926 18.7483 29.3523 18.4764C29.3119 18.2045 29.1788 17.9549 28.9754 17.7699Z" fill="#FFDA96"/>
</svg>
